<svg version="1.1" id="Layer_1" xmlns="http://www.w3.org/2000/svg" xmlns:xlink="http://www.w3.org/1999/xlink" x="0px" y="0px" width="24px" height="24px" viewBox="0 0 24 24" style="enable-background:new 0 0 24 24;" xml:space="preserve" stroke="#003e80">
<path d="M22.4511719,6H1.5C0.671875,6,0,5.3286133,0,4.5S0.671875,3,1.5,3h20.9511719c0.828125,0,1.5,0.6713867,1.5,1.5
	S23.2792969,6,22.4511719,6z"></path>
<path d="M22.4511719,13.5H1.5C0.671875,13.5,0,12.8286133,0,12s0.671875-1.5,1.5-1.5h20.9511719c0.828125,0,1.5,0.6713867,1.5,1.5
	S23.2792969,13.5,22.4511719,13.5z"></path>
<path d="M22.4511719,21H1.5C0.671875,21,0,20.3286133,0,19.5S0.671875,18,1.5,18h20.9511719c0.828125,0,1.5,0.6713867,1.5,1.5
	S23.2792969,21,22.4511719,21z"></path>
</svg>