<svg version="1.1" id="Layer_1" xmlns="http://www.w3.org/2000/svg" xmlns:xlink="http://www.w3.org/1999/xlink" x="0px" y="0px" width="24px" height="24px" viewBox="0 0 24 24" style="enable-background:new 0 0 24 24;" xml:space="preserve">
<path id="search" d="M17.7191334,15.5738506c2.5573559-3.8850498,2.4550629-9.4922314-0.961565-12.9057446
	c-4.037859-3.754458-10.3484344-3.5178807-14.095067,0.5284102c-3.5613694,3.8462107-3.5484405,9.7972965,0.0296073,13.6279316
	c3.4166281,3.4135132,8.9916639,3.4852676,12.858386,0.9020691L21.8313618,24L24,21.8268318L17.7191334,15.5738506z
	 M4.3185873,15.2048225C1.3234186,12.2014732,1.324975,7.3336434,4.3220639,4.3322186s7.854773-2.9998651,10.8499432,0.0034833
	c2.9938126,3.0019879,2.9938126,7.8671322,0,10.8691206c-2.9951696,3.0033493-7.8528538,3.0049095-10.8499432,0.0034838
	C4.3209047,15.2071447,4.319746,15.2059841,4.3185873,15.2048225z"></path>
</svg>