<?xml version="1.0" encoding="UTF-8" standalone="no"?><!DOCTYPE svg PUBLIC "-//W3C//DTD SVG 1.1//EN" "http://www.w3.org/Graphics/SVG/1.1/DTD/svg11.dtd"><svg width="100%" height="100%" viewBox="0 0 226 161" version="1.1" xmlns="http://www.w3.org/2000/svg" xmlns:xlink="http://www.w3.org/1999/xlink" xml:space="preserve" xmlns:serif="http://www.serif.com/" style="fill-rule:evenodd;clip-rule:evenodd;stroke-linejoin:round;stroke-miterlimit:2;"><rect id="Artboard1" x="0" y="0" width="225.47" height="160.692" style="fill:none;"/><clipPath id="_clip1"><rect x="0" y="0" width="225.47" height="160.692"/></clipPath><g clip-path="url(#_clip1)"><g id="Layer-1" serif:id="Layer 1"><path d="M60.57,99.809l-9.697,26.643l-7.145,-26.643l-22.891,0l-22.259,60.747l23.395,0l10.005,-27.288l6.813,27.288l22.737,0l22.249,-60.747l-23.207,0Z" style="fill:#fff;fill-rule:nonzero;"/><path d="M180.394,98.458c-27.021,-0 -41.507,18.72 -43.875,37.273c-0.335,2.627 -0.958,11.73 5.083,18.591c4.431,5.032 11.294,7.584 20.399,7.584c4.746,-0 9.06,-0.879 12.798,-2.583l-0.453,1.233l19.255,-0l12.966,-35.235l-30.996,-0l-5.957,16.16l7.641,-0c-2.074,1.514 -4.887,2.278 -8.411,2.278c-3.182,-0 -5.447,-0.738 -6.73,-2.196c-1.254,-1.424 -1.696,-3.671 -1.311,-6.677c1.611,-12.628 9.495,-18.281 16.595,-18.281c2.55,-0 4.328,0.497 5.285,1.477c0.75,0.766 1.097,1.928 1.06,3.551l-0.047,2.046l22.873,-0l0.205,-1.771c0.73,-6.341 -0.721,-11.6 -4.314,-15.631c-4.494,-5.042 -12.331,-7.819 -22.066,-7.819" style="fill:#fff;fill-rule:nonzero;"/><path d="M166.046,69.708l-37.236,25.548l-23.892,65.3l20.161,-0l23.655,-64.588l68.746,-0l9.633,-26.26l-61.067,-0Z" style="fill:#fff;fill-rule:nonzero;"/><path d="M93.098,69.708l-61.614,-0l-9.633,26.26l65.947,-0l-23.658,64.588l20.018,-0l24.349,-66.354l-15.409,-24.494Z" style="fill:#fff;fill-rule:nonzero;"/><path d="M172.964,63.212l-47.53,-0.046l0.341,-0.516l0.115,-0.181c1.155,-1.834 9.308,-2.34 22.957,-1.426l0.136,0.009c21.585,1.448 34.645,-7.183 36.794,-24.318l0.726,-5.788l-4.124,4.125c-2.731,2.731 -4.713,3.835 -6.668,4.812c-1.961,0.981 -3.925,1.696 -5.899,2.228c6.072,-2.856 11.691,-7.844 15.381,-16.397c2.575,-5.971 4.489,-19.787 -6.039,-24.375l-2.71,-1.181l-0.726,-4.564l-2.833,3.747c-3.97,5.253 -7.978,9.812 -16.842,12.413c-4.898,1.436 -10.204,1.951 -15.82,2.496c-9.682,0.94 -20.655,2.005 -33.113,8.032c-3.855,1.866 -10.51,7.359 -13.042,14.846c-1.558,4.605 -1.262,9.087 0.877,13.321c4.01,7.934 14.08,10.903 21.862,12.709l-25.295,-0.025l19.546,31.069l-24.328,66.3l15.648,0.028l23.881,-65.274l46.705,-32.044Z" style="fill:#fff;fill-rule:nonzero;"/><path d="M107.981,24.083c19.375,-9.375 35.03,-6.423 48.624,-10.41c9.375,-2.75 13.718,-7.625 17.875,-13.125c1.75,11 -3.75,27 -20.855,35.356c-15.861,7.747 -33.145,11.519 -33.77,25.894c-9,-2 -19.245,-4.572 -23.125,-12.25c-5.875,-11.625 5.522,-22.693 11.251,-25.465" style="fill:#cd153e;fill-rule:nonzero;"/><path d="M176.605,41.672c2,-1 4.187,-2.188 7.187,-5.187c-3.123,24.91 -29.623,22.91 -34.812,22.562c-23.238,-1.557 -24.079,1.296 -24.875,2.5c-1.249,-12.069 11.428,-14.33 15.814,-15.027c12.751,-2.028 24.686,1.152 36.686,-4.848" style="fill:#cd153e;fill-rule:nonzero;"/><path d="M169.481,27.208c4.028,-5.103 9.749,-14.535 8.874,-24.035c9.688,4.223 6.802,17.571 5,21.75c-8.626,19.999 -28,19.375 -40,18.375c14.376,-5.027 21.439,-10.153 26.126,-16.09" style="fill:#cd153e;fill-rule:nonzero;"/><path d="M22.234,101.809l19.96,-0l8.313,30.997l0.183,-0l11.281,-30.997l18.944,-0l-20.785,56.747l-19.777,-0l-7.936,-31.791l-0.184,-0l-11.656,31.791l-19.136,-0l20.793,-56.747Z" style="fill:#cd153e;fill-rule:nonzero;"/><path d="M179.229,153.072l1.336,-0.16c-4.84,4.928 -11.604,6.994 -18.563,6.994c-22.889,-0 -24.401,-16.848 -23.498,-23.922c2.272,-17.803 16.253,-35.526 41.89,-35.526c14.649,-0 26.097,6.437 24.393,21.221l-19.045,-0c0.12,-5.246 -3.217,-7.074 -8.344,-7.074c-11.079,-0 -17.332,10.252 -18.579,20.028c-0.852,6.676 1.876,11.126 10.025,11.126c5.401,-0 10.192,-1.668 12.795,-6.278l-9.156,-0l4.482,-12.16l26.735,-0l-11.494,31.235l-14.994,-0l2.017,-5.484Z" style="fill:#cd153e;fill-rule:nonzero;"/><path d="M166.665,71.708l-36.198,24.835l-22.688,62.012l15.902,0l23.656,-64.587l68.745,0l8.166,-22.26l-57.583,0Z" style="fill:#cd153e;fill-rule:nonzero;"/><path d="M82.763,158.556l0.523,-1.427l23.006,-62.693l-14.298,-22.727l-59.112,-0l-8.166,22.26l65.945,-0l-23.658,64.587l15.76,-0Z" style="fill:#cd153e;fill-rule:nonzero;"/><path d="M95.133,65.133l18.14,28.835l-23.682,64.539l11.389,0.02l23.62,-64.559l41.97,-28.795l-6.491,-0.04l-64.946,0Z" style="fill:#0b2c6c;fill-rule:nonzero;"/></g></g></svg>