<?xml version="1.0" encoding="UTF-8" standalone="no"?>
<svg
   xmlns:dc="http://purl.org/dc/elements/1.1/"
   xmlns:cc="http://creativecommons.org/ns#"
   xmlns:rdf="http://www.w3.org/1999/02/22-rdf-syntax-ns#"
   xmlns:svg="http://www.w3.org/2000/svg"
   xmlns="http://www.w3.org/2000/svg"
   xmlns:sodipodi="http://sodipodi.sourceforge.net/DTD/sodipodi-0.dtd"
   xmlns:inkscape="http://www.inkscape.org/namespaces/inkscape"
   width="110.55859pt"
   height="131.20703pt"
   viewBox="0 0 110.55859 131.20703"
   version="1.2"
   id="svg335"
   sodipodi:docname="Stabaek JF logo.svg"
   inkscape:version="0.92.4 (5da689c313, 2019-01-14)">
  <metadata
     id="metadata341">
    <rdf:RDF>
      <cc:Work
         rdf:about="">
        <dc:format>image/svg+xml</dc:format>
        <dc:type
           rdf:resource="http://purl.org/dc/dcmitype/StillImage" />
        <dc:title></dc:title>
      </cc:Work>
    </rdf:RDF>
  </metadata>
  <defs
     id="defs339" />
  <sodipodi:namedview
     pagecolor="#ffffff"
     bordercolor="#666666"
     borderopacity="1"
     objecttolerance="10"
     gridtolerance="10"
     guidetolerance="10"
     inkscape:pageopacity="0"
     inkscape:pageshadow="2"
     inkscape:window-width="1366"
     inkscape:window-height="705"
     id="namedview337"
     showgrid="false"
     inkscape:pagecheckerboard="true"
     inkscape:zoom="1.6819299"
     inkscape:cx="-27.425945"
     inkscape:cy="99.040331"
     inkscape:window-x="-8"
     inkscape:window-y="-8"
     inkscape:window-maximized="1"
     inkscape:current-layer="surface50" />
  <g
     id="surface50"
     transform="translate(-351.30859,-68.511719)">
    <path
       style="fill:#ffffff;fill-opacity:1;fill-rule:nonzero;stroke:none"
       d="m 406.13672,68.511719 c -6.04688,0 -7.96875,3.570312 -9.66406,6.71875 -1.70313,3.167969 -3.46875,6.445312 -9.74219,8.476562 -2.29688,0.742188 -5.50391,1.226563 -8.90235,1.746094 -11.1914,1.699219 -26.51953,4.027344 -26.51953,18.906255 0,6.74218 2.73047,10.27343 5.625,14.01171 2.97266,3.84766 6.34766,8.20704 7.45703,17.80469 0.94922,8.19922 0.19141,13.51172 -0.41406,17.78125 -0.8164,5.72656 -1.46094,10.25 2.55469,17.04688 3.41797,5.77734 8.03125,7.39453 12.48828,8.96093 3.28125,1.14844 6.67578,2.33985 10.15234,5.2461 2.4961,2.09375 4.35938,4.46875 6.16407,6.76172 3.1289,3.98437 6.08203,7.74609 11.19922,7.74609 h 0.10937 c 5.11328,0 8.06641,-3.76172 11.19531,-7.74609 1.80469,-2.29297 3.66797,-4.66797 6.16797,-6.76172 3.47656,-2.90625 6.86719,-4.09766 10.14844,-5.2461 4.46094,-1.5664 9.07422,-3.18359 12.48828,-8.96093 4.01563,-6.79688 3.37109,-11.32032 2.55469,-17.04688 -0.60547,-4.26953 -1.36328,-9.58203 -0.41406,-17.78125 1.11328,-9.59765 4.48437,-13.95703 7.46093,-17.80469 2.89063,-3.73828 5.6211,-7.26953 5.6211,-14.01171 0,-14.878911 -15.32422,-17.207036 -26.51563,-18.906255 -3.39844,-0.519531 -6.60937,-1.003906 -8.90234,-1.746094 -5.98828,-1.941406 -7.82031,-5.171875 -9.59375,-8.292968 -1.83203,-3.234375 -3.91406,-6.902344 -10.21094,-6.902344 z m 0,0"
       id="path206"
       inkscape:connector-curvature="0" />
    <path
       style="fill:#cc8f00;fill-opacity:1;fill-rule:nonzero;stroke:none"
       d="m 399.08594,189.03125 c -1.86719,-2.37109 -3.97657,-5.0625 -6.85547,-7.47266 -4.14063,-3.46484 -8.125,-4.85937 -11.63281,-6.08984 -4.15235,-1.45703 -7.4336,-2.60547 -9.96094,-6.89063 -3.16406,-5.35546 -2.70703,-8.58984 -1.94531,-13.94921 0.64843,-4.54297 1.45312,-10.19141 0.43359,-19.00391 -1.26563,-10.91406 -5.23438,-16.04687 -8.42578,-20.17187 -2.6875,-3.46875 -4.62891,-5.98047 -4.62891,-11.09375 0,-10.011724 9.31641,-12.199224 22.47266,-14.195317 3.59375,-0.546875 6.98828,-1.066407 9.65234,-1.925782 8.09375,-2.617187 10.625,-7.316406 12.47266,-10.75 1.55859,-2.890625 2.26953,-4.210937 5.46875,-4.210937 h 0.50781 c 3.51953,0 4.375,1.5 6.07031,4.488281 1.90625,3.359375 4.51953,7.964844 12.26563,10.472656 2.66406,0.859375 6.05859,1.378907 9.65234,1.925782 13.15625,1.996093 22.46875,4.183593 22.46875,14.195317 0,5.11328 -1.9414,7.625 -4.625,11.09375 -3.1914,4.125 -7.16015,9.25781 -8.42578,20.17187 -1.01953,8.8125 -0.21484,14.46094 0.43359,19 0.76172,5.36328 1.22266,8.59766 -1.94531,13.95312 -2.52734,4.28516 -5.80859,5.4336 -9.96094,6.89063 -3.51171,1.23047 -7.48828,2.625 -11.6289,6.08984 -2.88281,2.41016 -4.99219,5.10157 -6.85547,7.47266 -2.97266,3.78125 -4.78125,5.92187 -7.44922,5.92187 h -0.10937 c -2.67188,0 -4.48047,-2.14062 -7.44922,-5.92187 m 7.05078,-120.519531 c -6.04297,0 -7.96485,3.570312 -9.66406,6.71875 -1.70313,3.167969 -3.46875,6.445312 -9.74219,8.472656 -2.29688,0.746094 -5.50391,1.230469 -8.90235,1.746094 -11.1914,1.703125 -26.51953,4.035156 -26.51953,18.910161 0,6.74218 2.73047,10.27343 5.625,14.01171 2.97266,3.84375 6.34766,8.20704 7.45703,17.80469 0.95313,8.19922 0.19532,13.51172 -0.41015,17.77734 -0.82031,5.73047 -1.46485,10.25391 2.55078,17.05079 3.41797,5.78125 8.03125,7.39843 12.48828,8.95703 3.28516,1.15234 6.67188,2.33984 10.15234,5.2539 2.4961,2.08594 4.35938,4.46094 6.16407,6.75782 3.1289,3.98437 6.08203,7.74609 11.19922,7.74609 h 0.10937 c 5.11328,0 8.07031,-3.76172 11.19531,-7.74609 1.80469,-2.29688 3.66797,-4.67188 6.16797,-6.75782 3.47266,-2.91406 6.86328,-4.10156 10.14844,-5.2539 4.46094,-1.5586 9.07422,-3.17578 12.48828,-8.95703 4.01563,-6.79688 3.37109,-11.32032 2.55469,-17.05079 -0.60547,-4.26562 -1.36328,-9.57812 -0.41406,-17.77734 1.11328,-9.59765 4.48437,-13.96094 7.46093,-17.80469 2.89453,-3.73828 5.6211,-7.26953 5.6211,-14.01171 0,-14.875005 -15.32422,-17.207036 -26.51563,-18.910161 -3.40234,-0.515625 -6.60937,-1 -8.90234,-1.746094 -5.98438,-1.933594 -7.82031,-5.164062 -9.59375,-8.289062 -1.83203,-3.234375 -3.91406,-6.902344 -10.21094,-6.902344 z m 0,0"
       id="path208"
       inkscape:connector-curvature="0" />
    <path
       style="fill:#002b59;fill-opacity:1;fill-rule:nonzero;stroke:none"
       d="m 413.27734,87.757813 c -4.28125,-4.773438 -3.8125,-8.992188 -6.57031,-8.992188 -4.30859,0 0.0586,9.734375 -17.59766,15.539063 -11.08203,3.644531 -27.1914,0.914062 -27.1914,9.824222 0,8.22656 7.76953,5.25781 13.48047,31.76562 0.84375,3.90234 0.77734,4.64063 0.40234,8.13281 14.67578,-31.52343 50.02734,-42.28515 37.47656,-56.269527"
       id="path210"
       inkscape:connector-curvature="0" />
    <path
       style="fill:#cc8f00;fill-opacity:1;fill-rule:nonzero;stroke:none"
       d="m 424.59766,102.18359 c 3.16796,-0.0781 7.03515,-0.10546 10.58203,-0.15625 -0.30078,1.08594 -0.19532,2.98047 -1.52344,3.46094 -2.39453,-0.082 -4.59766,-0.17187 -6.875,0.26953 1.50781,1.35547 3.46484,2.32422 5.19531,3.48828 0.0664,0.9961 -0.84765,1.86719 -1.32422,2.76954 -5.22656,-2.8086 -10.16406,-6.20313 -15.23437,-9.30079 0.42578,-0.94531 0.94922,-1.95703 1.73828,-2.60937 1.13672,0.64844 2.22656,1.44531 3.44922,1.94531 -0.1211,-1.85547 -1.33594,-3.671874 -1.91406,-5.558592 l 1.65625,-3.453125 c 1.79687,2.789062 2.52343,6.207031 4.25,9.144527"
       id="path212"
       inkscape:connector-curvature="0" />
    <path
       style="fill:none;stroke:#ffffff;stroke-width:0.31999999;stroke-linecap:butt;stroke-linejoin:miter;stroke-miterlimit:4;stroke-opacity:1"
       d="M -4.375e-5,-0.00159375 C 3.167925,0.0765312 7.035113,0.103875 10.581988,0.154656 10.281206,-0.931281 10.386675,-2.825813 9.05855,-3.306281 6.664019,-3.22425 4.460894,-3.134406 2.18355,-3.575813 3.691363,-4.931281 5.648394,-5.900031 7.378863,-7.064094 7.445269,-8.060188 6.531206,-8.931281 6.054644,-9.833625 0.828081,-7.025031 -4.109419,-3.6305 -9.179731,-0.532844 -8.75395,0.412469 -8.230512,1.424187 -7.44145,2.076531 -6.304731,1.428094 -5.214887,0.631219 -3.992231,0.131219 -4.113325,1.986687 -5.328169,3.803094 -5.906294,5.689812 l 1.65625,3.453125 C -2.453169,6.353875 -1.726606,2.935906 -4.375e-5,-0.00159375 Z m 0,0"
       transform="matrix(1,0,0,-1,424.5977,102.182)"
       id="path214"
       inkscape:connector-curvature="0" />
    <path
       style="fill:#cc8f00;fill-opacity:1;fill-rule:nonzero;stroke:none"
       d="m 430.41016,96.417969 c 0.14453,0.980469 -0.44532,1.570312 -0.8711,2.226562 -0.625,0.527344 -1.5664,0.617188 -2.30469,0.285157 -0.77734,-0.300782 -1.26953,-1.191407 -1.42968,-1.964844 0.0234,-0.96875 0.60156,-1.921875 1.57031,-2.179688 1.34375,-0.160156 2.46875,0.449219 3.03516,1.632813"
       id="path216"
       inkscape:connector-curvature="0" />
    <path
       style="fill:none;stroke:#ffffff;stroke-width:0.31999999;stroke-linecap:butt;stroke-linejoin:miter;stroke-miterlimit:4;stroke-opacity:1"
       d="M -4.375e-5,-0.00156875 C 0.144488,-0.982038 -0.445356,-1.571881 -0.871137,-2.228131 c -0.625,-0.527344 -1.566407,-0.617188 -2.304688,-0.285157 -0.777344,0.300782 -1.269531,1.191407 -1.429687,1.964844 0.023437,0.96875 0.601562,1.921875 1.570312,2.179688 1.34375,0.160156 2.46875,-0.449219 3.03515625,-1.63281275 z m 0,0"
       transform="matrix(1,0,0,-1,430.4102,96.4164)"
       id="path218"
       inkscape:connector-curvature="0" />
    <path
       style="fill:#cc8f00;fill-opacity:1;fill-rule:nonzero;stroke:none"
       d="m 416.64062,105.78516 c -0.80859,1.3164 -2.15625,2.37109 -2.96484,3.66797 0.72656,0.79296 1.69922,1.62109 2.89063,1.75781 l 1.6914,-1.88672 2.87891,1.90234 -1.42969,2.0586 3.98438,2.55078 2.9375,-3.51953 c 0.875,0.57422 1.79687,1.01562 2.60937,1.73828 -0.98437,2.18359 -2.98047,3.83984 -4.25781,5.86719 -1.17578,-0.0781 -1.82422,-1.1875 -2.89453,-1.48829 l -3.21485,3.08594 1.28125,2.21485 c -0.71484,1.03906 -1.70703,1.90625 -2.73047,2.39062 -2.70703,-5.39844 -6.28906,-10.51562 -8.78515,-16.01562 l 5.8164,-5.7461 c 0.82032,0.26563 1.54688,0.76953 2.1875,1.42188"
       id="path220"
       inkscape:connector-curvature="0" />
    <path
       style="fill:none;stroke:#ffffff;stroke-width:0.31999999;stroke-linecap:butt;stroke-linejoin:miter;stroke-miterlimit:4;stroke-opacity:1"
       d="M -9.75e-4,3.4375e-4 C -0.809569,-1.316063 -2.157225,-2.37075 -2.965819,-3.667625 -2.239256,-4.460594 -1.2666,-5.288719 -0.0751938,-5.425438 l 1.6914058,1.886719 2.878907,-1.902344 -1.429688,-2.058593 3.984375,-2.550782 2.9375,3.519532 c 0.875,-0.574219 1.796875,-1.015625 2.609375,-1.738282 -0.984375,-2.183593 -2.980469,-3.839843 -4.257812,-5.867187 -1.175782,0.07813 -1.824219,1.1875 -2.894532,1.488281 l -3.214843,-3.085937 1.28125,-2.214844 C 2.7959,-18.987938 1.803712,-19.855125 0.780275,-20.3395 c -2.707031,5.398437 -6.289063,10.515625 -8.785156,16.015625 l 5.816406,5.746094 C -1.368163,1.156594 -0.6416,0.652687 -9.75e-4,3.4375e-4 Z m 0,0"
       transform="matrix(1,0,0,-1,416.6416,105.7855)"
       id="path222"
       inkscape:connector-curvature="0" />
    <path
       style="fill:#ffffff;fill-opacity:1;fill-rule:nonzero;stroke:none"
       d="m 418.76953,116.78516 c -0.17969,0.6914 -1.07812,1.01562 -1.40234,1.62109 -1.08203,-1.23437 -2.13282,-2.90234 -2.57422,-4.30469 1.26562,1.01953 2.84375,1.63672 3.97656,2.6836"
       id="path224"
       inkscape:connector-curvature="0" />
    <path
       style="fill:#cc8f00;fill-opacity:1;fill-rule:nonzero;stroke:none"
       d="m 407.08594,116.29297 c 1.03125,1.09766 0.82812,3.29297 2.18359,3.57422 2.38672,0.44531 4.875,1.71875 5.71484,4.25 0.45704,1.13281 0.33985,2.63281 0.0312,3.84765 -2.07812,3.48438 -5.49218,5.5 -8.28906,8.59375 -0.86328,-0.1914 -1.50781,-0.80468 -2.35156,-1.01562 -1.27344,1.38281 -4.99609,3.25 -1.91406,5.01562 -0.63672,0.96875 -1.46485,2.23047 -2.58985,2.55078 l -9.25781,-15.47265 c 0.13281,-1.13281 1.17188,-1.82813 1.74609,-2.74219 5.33594,2.83203 10.70704,5.95313 16.00782,8.49609 -3.3125,-4.3164 -7.62891,-8.41406 -11.30469,-12.46874 l 0.0469,-0.71875 c 2.97266,-2.31641 6.19922,-7.26563 9.97657,-3.91016"
       id="path226"
       inkscape:connector-curvature="0" />
    <path
       style="fill:none;stroke:#ffffff;stroke-width:0.31999999;stroke-linecap:butt;stroke-linejoin:miter;stroke-miterlimit:4;stroke-opacity:1"
       d="M 3.75e-5,0.00133125 C 1.031288,-1.096325 0.828163,-3.291638 2.183631,-3.572888 c 2.386719,-0.445312 4.875,-1.71875 5.714844,-4.25 0.457031,-1.132812 0.339844,-2.632812 0.03125,-3.847656 -2.078125,-3.484375 -5.492187,-5.5 -8.289062,-8.59375 -0.863282,0.191406 -1.507813,0.804688 -2.351563,1.015625 -1.273437,-1.382812 -4.996094,-3.25 -1.914062,-5.015625 -0.636719,-0.96875 -1.464844,-2.230469 -2.589844,-2.550781 l -9.257813,15.472656 c 0.132813,1.132813 1.171875,1.828125 1.746094,2.742188 5.335938,-2.832032 10.707031,-5.953125 16.007813,-8.496094 -3.3125,4.316406 -7.628907,8.414062 -11.304688,12.46875 l 0.046875,0.71875 C -7.003869,-1.592419 -3.777306,3.3568 3.75e-5,0.00133125 Z m 0,0"
       transform="matrix(1,0,0,-1,407.0859,116.2943)"
       id="path228"
       inkscape:connector-curvature="0" />
    <path
       style="fill:#ffffff;fill-opacity:1;fill-rule:nonzero;stroke:none"
       d="m 405.92969,120.78906 c 0.1289,1.22657 -0.94141,1.86328 -1.75391,2.60547 -1.33984,-0.50781 -1.71875,-1.98047 -2.67578,-2.75 0.28906,-0.92969 1.26562,-1.26562 1.99219,-1.86719 1.13672,0.0781 2.14843,0.92579 2.4375,2.01172"
       id="path230"
       inkscape:connector-curvature="0" />
    <path
       style="fill:#ffffff;fill-opacity:1;fill-rule:nonzero;stroke:none"
       d="m 411.36328,125.01953 c 0.79297,1.84375 -1.10547,2.85938 -2.125,3.85547 -1.00391,-1.20703 -2.3125,-1.82812 -2.76953,-3.32812 0.99219,-1.6836 4,-3.10157 4.89453,-0.52735"
       id="path232"
       inkscape:connector-curvature="0" />
    <path
       style="fill:#ffffff;fill-opacity:1;fill-rule:nonzero;stroke:none"
       d="m 400.93359,133.46484 c 0.24219,0.91407 -0.95703,1.46094 -1.42578,2.19532 -1.49609,-1.55079 -2.76953,-3.3086 -3.80078,-5.26172 z m 0,0"
       id="path234"
       inkscape:connector-curvature="0" />
    <path
       style="fill:#cc8f00;fill-opacity:1;fill-rule:nonzero;stroke:none"
       d="m 390.40625,132.76562 c -0.11719,1.23047 -1.42578,2.25 -1.66797,3.60547 l 10.63281,7.69922 c -0.34765,1.15625 -1.13281,2.09375 -1.91797,3.01563 l -10.93359,-7.4336 c -1.00781,0.52344 -1.22266,2.35547 -2.4375,2.25391 l -2.57031,-2.01563 6.03125,-9.03125 c 0.96875,0.60157 2.18359,0.98438 2.86328,1.90625"
       id="path236"
       inkscape:connector-curvature="0" />
    <path
       style="fill:none;stroke:#ffffff;stroke-width:0.31999999;stroke-linecap:butt;stroke-linejoin:miter;stroke-miterlimit:4;stroke-opacity:1"
       d="m -5e-5,0.001375 c -0.117187,-1.230469 -1.425781,-2.25 -1.667969,-3.605469 l 10.632813,-7.699219 c -0.347656,-1.15625 -1.132813,-2.09375 -1.917969,-3.015625 l -10.933594,7.433594 c -1.007812,-0.523437 -1.222656,-2.355469 -2.4375,-2.253906 l -2.570312,2.015625 6.03125,9.03125 C -1.894581,1.306062 -0.679737,0.92325 -5e-5,0.001375 Z m 0,0"
       transform="matrix(1,0,0,-1,390.4063,132.767)"
       id="path238"
       inkscape:connector-curvature="0" />
    <path
       style="fill:#cc8f00;fill-opacity:1;fill-rule:nonzero;stroke:none"
       d="m 384.19922,142.48828 c 0.0156,0.875 -0.4375,1.97266 -1.17969,2.49219 -1.10156,-0.28125 -2.23047,0.082 -2.64453,1.12109 -0.0781,0.91016 0.39453,1.51172 1.01562,1.91406 4.19141,-0.004 8.94922,-4.47265 12.57422,-0.0195 1.03516,1.91407 1.1875,4.46094 -0.1289,6.27735 -1.07813,1.5664 -2.75,2.04687 -4.42969,2.14453 -0.94922,-0.35156 -2.44922,0.14062 -2.93359,-0.91797 0.24609,-1.07422 0.89062,-1.94141 1.0625,-3.07422 0.95312,0.0234 2.39453,0.94141 3.42187,0.0937 0.51172,-0.5 0.60547,-1.35156 0.26563,-1.98437 -3.05079,-2.52344 -6.1875,0.78906 -9.33985,0.9414 -1.5039,0.0156 -2.8789,-0.21094 -3.77344,-1.39453 -1.1914,-1.23828 -1.51562,-2.95703 -0.96875,-4.63672 1.06641,-2.55469 4.31641,-4.1289 7.0586,-2.95703"
       id="path240"
       inkscape:connector-curvature="0" />
    <path
       style="fill:none;stroke:#ffffff;stroke-width:0.31999999;stroke-linecap:butt;stroke-linejoin:miter;stroke-miterlimit:4;stroke-opacity:1"
       d="M 0.00191875,-1.8125e-4 C 0.0175438,-0.875181 -0.435581,-1.972837 -1.177769,-2.492369 -2.279331,-2.211119 -3.408237,-2.5744 -3.8223,-3.613462 c -0.078125,-0.910157 0.394531,-1.511719 1.015625,-1.914063 4.191406,0.00391 8.949219,4.472656 12.574219,0.019531 1.035156,-1.914062 1.1875,-4.460937 -0.128906,-6.277343 -1.078125,-1.566407 -2.75,-2.046875 -4.429688,-2.144532 -0.949219,0.351563 -2.449219,-0.140625 -2.933594,0.917969 0.246094,1.074219 0.890625,1.941406 1.0625,3.074219 0.953125,-0.023438 2.394532,-0.941406 3.421875,-0.09375 0.511719,0.5 0.605469,1.351562 0.265625,1.984375 -3.050781,2.523437 -6.1875,-0.789063 -9.339843,-0.941406 -1.503907,-0.015625 -2.878907,0.210937 -3.773438,1.394531 -1.191406,1.238281 -1.515625,2.957031 -0.96875,4.636719 1.066406,2.554687 4.316406,4.128906 7.05859375,2.95703075 z m 0,0"
       transform="matrix(1,0,0,-1,384.1973,142.4881)"
       id="path242"
       inkscape:connector-curvature="0" />
    <path
       style="fill:#cc8f00;fill-opacity:1;fill-rule:nonzero;stroke:none"
       d="m 384.03516,155.48828 c 0.14062,1.36328 -0.4961,2.61328 -1.76172,3.02734 -1.21875,0.0117 -2.58203,-0.45703 -2.74219,-1.76562 -0.39844,-0.86719 0.26172,-1.58203 0.72266,-2.23828 1.14843,-0.95313 3.30468,-0.41016 3.78125,0.97656"
       id="path244"
       inkscape:connector-curvature="0" />
    <path
       style="fill:none;stroke:#ffffff;stroke-width:0.31999999;stroke-linecap:butt;stroke-linejoin:miter;stroke-miterlimit:4;stroke-opacity:1"
       d="M -0.00194375,-5.8125e-4 C 0.138681,-1.363862 -0.498037,-2.613862 -1.763662,-3.027925 c -1.21875,-0.011719 -2.582032,0.457031 -2.742188,1.765625 -0.398437,0.867188 0.261719,1.582031 0.722656,2.238281 1.148438,0.953125 3.304688,0.410157 3.78125025,-0.97656225 z m 0,0"
       transform="matrix(1,0,0,-1,384.0371,155.4877)"
       id="path246"
       inkscape:connector-curvature="0" />
    <path
       style="fill:#cc8f00;fill-opacity:1;fill-rule:nonzero;stroke:none"
       d="m 369.62109,103.52734 2.69532,-1.76171 h 1.46093 l -1.73828,8.03515 h -1.60937 l 1.37109,-6.20312 -1.47656,1.02343 z m 0,0"
       id="path248"
       inkscape:connector-curvature="0" />
    <path
       style="fill:#cc8f00;fill-opacity:1;fill-rule:nonzero;stroke:none"
       d="m 377.99219,102.82813 c -0.94141,0 -1.30078,1.05859 -1.30078,1.86328 0,0.59765 0.2539,1.07031 0.93359,1.07031 0.89844,0 1.27734,-0.94141 1.27734,-1.71484 0,-0.60938 -0.3125,-1.21875 -0.91015,-1.21875 m 2.45312,1.64453 c 0,2.60156 -1.24219,5.46875 -4.20312,5.46875 -0.6211,0 -1.4375,-0.15235 -1.85157,-0.33594 l 0.40235,-1.17188 c 0.42578,0.17188 0.88672,0.24219 1.34765,0.24219 1.29688,0 2.03516,-0.96875 2.39063,-2.09765 h -0.0195 c -0.41406,0.27734 -0.79688,0.3789 -1.25391,0.3789 -1.37109,0 -2.17578,-0.85156 -2.17578,-2.19531 0,-1.78516 1.06641,-3.13281 2.89844,-3.13281 1.77344,0 2.46484,1.19922 2.46484,2.84375"
       id="path250"
       inkscape:connector-curvature="0" />
    <path
       style="fill:#cc8f00;fill-opacity:1;fill-rule:nonzero;stroke:none"
       d="m 388.80078,103.52734 2.69141,-1.76171 h 1.46093 l -1.73437,8.03515 h -1.61328 l 1.37109,-6.20312 -1.47656,1.02343 z m 0,0"
       id="path252"
       inkscape:connector-curvature="0" />
    <path
       style="fill:#cc8f00;fill-opacity:1;fill-rule:nonzero;stroke:none"
       d="m 398.26172,109.80078 h -5.28125 l 0.2539,-1.32031 c 1.4375,-1.32422 4.32813,-3.14453 4.32813,-4.45703 0,-0.72656 -0.54297,-1.12891 -1.21094,-1.12891 -0.66797,0 -1.3125,0.3125 -1.85547,0.69141 l -0.0312,-1.4375 c 0.69141,-0.26563 1.41407,-0.51953 2.16016,-0.51953 1.38281,0 2.61719,0.65625 2.61719,2.17578 0,1.95703 -2.5,3.67187 -3.86719,4.70703 v 0.0234 h 3.12891 z m 0,0"
       id="path254"
       inkscape:connector-curvature="0" />
    <path
       style="fill:#cc8f00;fill-opacity:1;fill-rule:nonzero;stroke:none"
       d="m 381.64844,101.17969 1.48437,-0.97266 h 0.8086 l -0.96094,4.4336 h -0.88672 l 0.75391,-3.42188 -0.8125,0.56641 z m 0,0"
       id="path256"
       inkscape:connector-curvature="0" />
    <path
       style="fill:#cc8f00;fill-opacity:1;fill-rule:nonzero;stroke:none"
       d="m 385.79297,102.4375 c -0.49219,0 -0.70313,0.51953 -0.70313,0.94531 0,0.33594 0.17188,0.67188 0.5,0.67188 0.52344,0 0.71875,-0.58203 0.71875,-1.02735 0,-0.33203 -0.14062,-0.58984 -0.51562,-0.58984 m -1.55469,0.71094 c 0,-1.4336 0.6875,-3.01563 2.31641,-3.01563 0.34375,0 0.79687,0.082 1.02343,0.1836 l -0.22265,0.64843 c -0.23438,-0.0977 -0.48828,-0.13281 -0.74219,-0.13281 -0.71484,0 -1.125,0.53125 -1.32031,1.15625 h 0.0117 c 0.22656,-0.15625 0.4375,-0.21094 0.6914,-0.21094 0.75782,0 1.20313,0.46875 1.20313,1.21485 0,0.98047 -0.59375,1.72656 -1.60156,1.72656 -0.97657,0 -1.35938,-0.66406 -1.35938,-1.57031"
       id="path258"
       inkscape:connector-curvature="0" />
    <path
       style="fill:#cc8f00;fill-opacity:1;fill-rule:nonzero;stroke:none"
       d="m 383.41797,110.42578 c 0.375,0.17969 0.66797,0.23438 1.07422,0.23438 0.42578,0 0.95312,-0.19532 0.95312,-0.73047 0,-0.58985 -0.8125,-0.58985 -1.24609,-0.58985 l 0.12109,-0.69921 c 0.53906,0 1.42188,0 1.42188,-0.72266 0,-0.32813 -0.3125,-0.44531 -0.67188,-0.44531 -0.36328,0 -0.70703,0.10937 -0.97265,0.23828 l 0.0898,-0.7461 c 0.35547,-0.10546 0.73437,-0.1875 1.10937,-0.1875 0.67969,0 1.375,0.29688 1.375,1.0586 0,0.64844 -0.45312,0.99609 -1.04296,1.125 v 0.0195 c 0.45703,0.16406 0.74218,0.41797 0.74218,0.92578 0,1.00781 -0.89453,1.45313 -1.80859,1.45313 -0.44141,0 -0.90234,-0.0625 -1.30469,-0.25391 z m 0,0"
       id="path260"
       inkscape:connector-curvature="0" />
    <path
       style="fill:none;stroke:#cc8f00;stroke-width:1.00399995;stroke-linecap:butt;stroke-linejoin:miter;stroke-miterlimit:4;stroke-opacity:1"
       d="M -0.0019125,3.875e-4 H 6.154337"
       transform="matrix(1,0,0,-1,381.5566,105.6332)"
       id="path262"
       inkscape:connector-curvature="0" />
    <path
       style="fill:#002b59;fill-opacity:1;fill-rule:nonzero;stroke:none"
       d="m 438.01953,135.89453 c 4.10938,-26.05078 13.01953,-21.48047 13.01953,-31.53515 0,-6.031255 -4.64453,-7.070317 -11.83594,-7.933599 -0.87109,33.109379 -68.5664,55.542969 -40.02343,83.332029 4.85156,4.72656 4.79687,8.92578 7.52734,8.92578 4.01563,0 3.20313,-8.22656 16.45703,-15.53906 4.80078,-2.64844 10.70313,-3.89844 12.79688,-5.71094 6.85547,-5.94531 -0.35547,-16.27734 2.05859,-31.53906"
       id="path264"
       inkscape:connector-curvature="0" />
    <path
       style="fill:#cc8f00;fill-opacity:1;fill-rule:nonzero;stroke:none"
       d="m 376.17578,135.72656 c -3.5,-16.23828 -7.78125,-21.5664 -10.61719,-25.08984 -1.77734,-2.21094 -2.84765,-3.54297 -2.84765,-6.50781 0,-5.171879 6.61718,-5.937504 14.27343,-6.824222 4.19532,-0.480469 8.53125,-0.984375 12.375,-2.246094 11.90625,-3.914063 14.13282,-9.648438 15.46094,-13.078125 0.75,-1.933594 1.03516,-2.421875 1.88672,-2.421875 0.89063,0 1.25391,0.632812 2.15234,2.589844 0.73829,1.613281 1.75391,3.824218 3.82813,6.140625 1.67187,1.863281 2.44141,3.644531 2.44141,5.46875 0,4.726562 -5.16797,9.734377 -13.28516,17.136717 -8.16406,7.44531 -18.15234,16.57813 -24.99219,29.28906 -0.0312,-1.19531 -0.23047,-2.39843 -0.67578,-4.45703 m 27.16406,-54.32031 c -1.23047,3.167969 -3.28515,8.464844 -14.47656,12.144531 -3.69141,1.210938 -7.94531,1.703125 -12.05859,2.179688 -8.06641,0.929687 -15.6836,1.808594 -15.6836,8.398441 0,3.52734 1.34375,5.19531 3.19922,7.5039 2.74219,3.40625 6.88281,8.5586 10.30469,24.42969 0.82422,3.82422 0.75781,4.44531 0.38281,7.87891 -0.0391,0.38671 0.20313,0.74609 0.57813,0.85156 0.37109,0.10156 0.76953,-0.0781 0.93359,-0.42969 6.65234,-14.28906 17.59766,-24.27344 26.39453,-32.29687 10.61719,-9.67969 18.28516,-16.671879 10.95703,-24.839847 -1.91797,-2.132813 -2.83593,-4.132813 -3.57031,-5.742188 -0.86328,-1.882812 -1.60937,-3.515625 -3.59375,-3.515625 -2.03516,0 -2.65234,1.59375 -3.36719,3.4375"
       id="path266"
       inkscape:connector-curvature="0" />
    <path
       style="fill:#cc8f00;fill-opacity:1;fill-rule:nonzero;stroke:none"
       d="m 404.26562,185.31641 c -0.91015,-1.61329 -2.16406,-3.82032 -4.53125,-6.125 -4.5625,-4.4375 -6.77734,-8.86719 -6.77734,-13.52735 v -0.0781 c 0.0508,-9.9961 10.34766,-19.82032 21.25,-30.21875 12.24219,-11.67578 24.85938,-23.7461 25.72266,-38.050784 7.2539,0.933594 10.32031,2.222657 10.32031,7.042974 0,3.78906 -1.31641,5.27734 -3.30469,7.52734 -3.05469,3.46094 -7.23828,8.20312 -9.71484,23.88672 -1.0586,6.71093 -0.27344,12.58593 0.35547,17.30859 0.82422,6.1875 1.41797,10.66016 -2.14453,13.75 -0.98829,0.85547 -3.0625,1.625 -5.46485,2.51953 -2.27344,0.84375 -4.85547,1.80469 -7.19531,3.09766 -8.08203,4.45703 -11.03906,9.23047 -13,12.38672 -1.3125,2.11718 -1.94141,3.05468 -3.07422,3.05468 -0.94141,0 -1.42578,-0.78906 -2.44141,-2.57421 m 34.41797,-89.492191 c -0.16797,0.144531 -0.26953,0.355469 -0.27343,0.578125 -0.36719,14.035156 -13.04297,26.121096 -25.29688,37.816406 -11.15625,10.63672 -21.69141,20.6875 -21.74609,31.35937 -0.0274,5.14454 2.34765,9.96875 7.25781,14.75 2.20703,2.14844 3.34766,4.15625 4.26172,5.76954 1.07031,1.88671 1.91406,3.3789 3.82031,3.3789 2.06641,0 3.05469,-1.59375 4.42578,-3.80078 1.86719,-3.01953 4.69922,-7.57812 12.41016,-11.83594 2.24219,-1.23437 4.76172,-2.17187 6.98828,-3 2.54687,-0.94922 4.74609,-1.76562 5.94922,-2.80859 4.21484,-3.65234 3.53515,-8.73047 2.67969,-15.16016 -0.64844,-4.85937 -1.38282,-10.36718 -0.35938,-16.85156 2.40625,-15.22656 6.41016,-19.76562 9.33594,-23.07812 2.0664,-2.34375 3.69922,-4.19141 3.69922,-8.58203 0,-6.699224 -5.19532,-7.839849 -12.53907,-8.722661 -0.21875,-0.02734 -0.44531,0.03906 -0.61328,0.1875"
       id="path268"
       inkscape:connector-curvature="0" />
    <path
       style="fill:#cc8f00;fill-opacity:1;fill-rule:nonzero;stroke:none"
       d="m 413.82031,151.74219 c -0.0273,0.0195 0.0703,14.10547 -0.14844,14.5664 -0.63281,1.39063 -2.10546,2.39063 -3.48437,2.41016 -1.58594,-0.0195 -3.17578,-0.37891 -4.16797,-1.49219 -0.73437,-1.25 -0.875,-2.99609 -0.4375,-4.46484 l 2.73047,-0.0117 c 0.0195,0.0117 -0.44531,2.3125 0.84375,2.98828 0.67578,0.17969 1.21094,-0.37891 1.48828,-0.89062 l -0.008,-9.98829 c -0.0195,0.0117 -4.96485,0.0195 -4.91406,0 -0.4375,-1.21093 -0.4375,-1.88671 0,-3.11718 z m 0,0"
       id="path270"
       inkscape:connector-curvature="0" />
    <path
       style="fill:#cc8f00;fill-opacity:1;fill-rule:nonzero;stroke:none"
       d="m 427.02344,151.74219 c 0.49609,0.8125 0.26953,2.23437 0.0898,3.1289 l -6.5,-0.0117 c -0.72656,0.40235 -0.51953,2.60547 -0.30078,3.01172 0.26953,0.45703 3.73437,0.27735 3.73437,0.26563 v 2.97656 c -0.0117,0 -4.03125,-0.38672 -4.03125,0.89453 l 0.0117,6.41016 -2.68359,-0.008 c 0,0 -0.008,-16.66797 0,-16.66797 z m 0,0"
       id="path272"
       inkscape:connector-curvature="0" />
  </g>
</svg>
